<svg width="256" height="256" viewBox="0 0 256 256" fill="none" xmlns="http://www.w3.org/2000/svg">
<rect width="256" height="256" fill="#CECECE"/>
<mask id="mask0_1392_13517" style="mask-type:alpha" maskUnits="userSpaceOnUse" x="84" y="78" width="88" height="88">
<rect x="84" y="78" width="88" height="88" fill="#D9D9D9"/>
</mask>
<g mask="url(#mask0_1392_13517)">
<path d="M156.233 139.783L153.667 137.217V99.2666C153.667 98.5333 153.361 97.8611 152.75 97.25C152.139 96.6389 151.467 96.3333 150.733 96.3333H112.783L110.217 93.7666H150.733C152.322 93.7666 153.636 94.2861 154.675 95.325C155.714 96.3639 156.233 97.6777 156.233 99.2666V139.783ZM159.9 157.567L152.567 150.233H105.267C103.678 150.233 102.364 149.714 101.325 148.675C100.286 147.636 99.7667 146.322 99.7667 144.733V97.4333L92.4333 90.1L94.2667 88.2666L161.733 155.733L159.9 157.567ZM113.15 137.95L119.2 130.067L125.067 136.85L131.392 129.058L102.333 100V144.733C102.333 145.467 102.639 146.139 103.25 146.75C103.861 147.361 104.533 147.667 105.267 147.667H150L140.283 137.95H113.15Z" fill="#9D9D9D"/>
</g>
<path d="M96.4 174H97.632V168.61C97.632 167.532 97.534 166.44 97.478 165.404H97.534L98.64 167.518L102.378 174H103.708V163.738H102.476V169.072C102.476 170.136 102.574 171.284 102.644 172.32H102.574L101.482 170.206L97.744 163.738H96.4V174ZM110.018 174.182C112.594 174.182 114.4 172.124 114.4 168.834C114.4 165.544 112.594 163.542 110.018 163.542C107.442 163.542 105.636 165.544 105.636 168.834C105.636 172.124 107.442 174.182 110.018 174.182ZM110.018 173.048C108.17 173.048 106.966 171.396 106.966 168.834C106.966 166.258 108.17 164.676 110.018 164.676C111.852 164.676 113.07 166.258 113.07 168.834C113.07 171.396 111.852 173.048 110.018 173.048ZM119.185 174H120.487V163.738H119.185V174ZM123.007 174H124.183V168.316C124.183 167.434 124.085 166.188 124.029 165.292H124.085L124.897 167.63L126.843 172.964H127.711L129.657 167.63L130.469 165.292H130.525C130.455 166.188 130.357 167.434 130.357 168.316V174H131.575V163.738H130.007L128.047 169.226C127.809 169.94 127.585 170.654 127.347 171.368H127.277C127.025 170.654 126.787 169.94 126.549 169.226L124.575 163.738H123.007V174ZM135.362 169.828L135.866 168.26C136.23 167.098 136.566 165.992 136.888 164.788H136.944C137.28 165.978 137.602 167.098 137.98 168.26L138.47 169.828H135.362ZM139.772 174H141.144L137.658 163.738H136.216L132.73 174H134.046L135.04 170.864H138.792L139.772 174ZM146.193 174.182C147.579 174.182 148.713 173.678 149.371 172.992V168.68H146.011V169.758H148.181V172.446C147.775 172.824 147.061 173.048 146.319 173.048C144.121 173.048 142.903 171.424 142.903 168.834C142.903 166.272 144.247 164.676 146.305 164.676C147.355 164.676 148.013 165.11 148.531 165.656L149.231 164.816C148.643 164.186 147.705 163.542 146.277 163.542C143.561 163.542 141.573 165.558 141.573 168.876C141.573 172.208 143.491 174.182 146.193 174.182ZM151.534 174H157.61V172.894H152.836V169.156H156.728V168.05H152.836V164.83H157.456V163.738H151.534V174Z" fill="#9D9D9D"/>
</svg>
